HIERARCHY
ROOT RootJoint
{
    OFFSET   0.000000   0.000000   0.000000
    CHANNELS 6 Xposition Yposition Zposition Xrotation Yrotation Zrotation
    JOINT pelvis_lowerback
    {
        OFFSET   0.000000   0.093605   0.000000
        CHANNELS 3 Xrotation Yrotation Zrotation
        JOINT lowerback_torso
        {
            OFFSET   0.000000   0.100000   0.000000
            CHANNELS 3 Xrotation Yrotation Zrotation
            JOINT torso_head
            {
                OFFSET   0.000000   0.282350   0.000000
                CHANNELS 3 Xrotation Yrotation Zrotation
                End Site
                {
                    OFFSET   0.000000   0.192650   0.000000
                }
            }
            JOINT rTorso_Clavicle
            {
                OFFSET  -0.001000   0.157500   0.000000
                CHANNELS 3 Xrotation Yrotation Zrotation
                JOINT rShoulder
                {
                    OFFSET  -0.117647   0.000000   0.000000
                    CHANNELS 3 Xrotation Yrotation Zrotation
                    JOINT rElbow
                    {
                        OFFSET  -0.245000   0.000000   0.000000
                        CHANNELS 3 Xrotation Yrotation Zrotation
                        JOINT rWrist
                        {
                            OFFSET  -0.240000   0.000000   0.000000
                            CHANNELS 3 Xrotation Yrotation Zrotation
                            End Site
                            {
                                OFFSET  -0.116353  -0.002500   0.000000
                            }
                        }
                    }
                }
            }
            JOINT lTorso_Clavicle
            {
                OFFSET   0.001000   0.157500   0.000000
                CHANNELS 3 Xrotation Yrotation Zrotation
                JOINT lShoulder
                {
                    OFFSET   0.117647   0.000000   0.000000
                    CHANNELS 3 Xrotation Yrotation Zrotation
                    JOINT lElbow
                    {
                        OFFSET   0.245000   0.000000   0.000000
                        CHANNELS 3 Xrotation Yrotation Zrotation
                        JOINT lWrist
                        {
                            OFFSET   0.240000   0.000000   0.000000
                            CHANNELS 3 Xrotation Yrotation Zrotation
                            End Site
                            {
                                OFFSET   0.116353  -0.002500   0.000000
                            }
                        }
                    }
                }
            }
        }
    }
    JOINT rHip
    {
        OFFSET  -0.100000  -0.051395   0.000000
        CHANNELS 3 Xrotation Yrotation Zrotation
        JOINT rKnee
        {
            OFFSET   0.000000  -0.410000   0.000000
            CHANNELS 3 Xrotation Yrotation Zrotation
            JOINT rAnkle
            {
                OFFSET   0.000000  -0.390000   0.000000
                CHANNELS 3 Xrotation Yrotation Zrotation
                JOINT rToeJoint
                {
                    OFFSET   0.000000  -0.050000   0.130000
                    CHANNELS 3 Xrotation Yrotation Zrotation
                    End Site
                    {
                        OFFSET  -0.010000   0.002000   0.060000
                    }
                }
            }
        }
    }
    JOINT lHip
    {
        OFFSET   0.100000  -0.051395   0.000000
        CHANNELS 3 Xrotation Yrotation Zrotation
        JOINT lKnee
        {
            OFFSET   0.000000  -0.410000   0.000000
            CHANNELS 3 Xrotation Yrotation Zrotation
            JOINT lAnkle
            {
                OFFSET   0.000000  -0.390000   0.000000
                CHANNELS 3 Xrotation Yrotation Zrotation
                JOINT lToeJoint
                {
                    OFFSET   0.000000  -0.050000   0.130000
                    CHANNELS 3 Xrotation Yrotation Zrotation
                    End Site
                    {
                        OFFSET   0.010000   0.002000   0.060000
                    }
                }
            }
        }
    }
}
MOTION
Frames: 15
Frame Time:   0.008333
 -2.376719   0.925631   3.975860   0.000000   0.000000   0.000000   0.000000   0.000000   0.000000   0.000000   0.000000   0.000000   0.000000   0.000000   0.000000   0.000000   0.000000   0.000000   0.000000   0.000000   0.000000   0.000000   0.000000   0.000000   0.000000   0.000000   0.000000   0.000000   0.000000   0.000000   0.000000   0.000000   0.000000   0.000000   0.000000   0.000000   0.000000   0.000000   0.000000   0.000000   0.000000   0.000000   0.000000   0.000000   0.000000   0.000000   0.000000   0.000000   0.000000   0.000000   0.000000   0.000000   0.000000   0.000000   0.000000   0.000000   0.000000   0.000000   0.000000   0.000000   0.000000   0.000000   0.000000
 -2.376486   0.925216   3.974325  -0.530478  -0.437291   0.260431   0.801469   0.218789  -0.244065   0.107156  -0.143780  -0.164878   0.022260   0.160199   0.101137  -0.135935  -0.260402  -0.554644  -0.437123   0.814599   2.156127   0.043207   3.414755   0.004196  -0.320451  -2.192707  -1.322813  -0.533718   0.347646   0.551655  -2.324152   0.555531  -1.458834   0.030584  -3.543646  -0.076046  -0.325535   1.488749   1.561998  -0.271863   0.345856  -0.626399   2.223098   0.007090  -0.001986  -1.605264  -0.295330   0.120212   0.118687   0.000256  -0.000399  -0.451658   0.619234  -0.034075   2.676433  -0.005069   0.004366  -1.786831   0.442528  -0.150897  -0.046440   0.000030  -0.000252
 -2.376197   0.924528   3.972393  -1.234151  -1.051876   0.530785   1.650227   0.501820  -0.503433   0.369406  -0.180915  -0.344151   0.107761   0.302512   0.175746  -0.261794  -0.203176  -0.706946  -0.899601   1.864500   4.495430   0.098134   7.023891   0.005657  -0.644076  -3.182603  -2.095553  -1.050341   0.531408   0.778034  -4.508190   0.967352  -3.048113   0.063112  -7.225879  -0.134465  -0.722486   1.985541   2.702843  -0.393314   0.663483  -1.533355   4.574984   0.018293  -0.008973  -3.092204  -0.582233   0.224196   0.214711   0.000651  -0.000821  -0.867849   1.232678   0.158749   5.511221  -0.014876   0.004558  -3.440441   0.872415  -0.273010  -0.110295   0.000205  -0.000442
 -2.375866   0.923357   3.970206  -1.960989  -1.727209   0.773905   2.473122   0.822215  -0.746061   0.658830  -0.146734  -0.507586   0.189474   0.433034   0.236447  -0.375897   0.071171  -0.593332  -1.388853   2.998760   6.881379   0.154057  10.706058   0.006140  -0.945072  -3.591651  -2.422149  -1.529157   0.562643   0.764561  -6.539709   1.297861  -4.687822   0.091724 -10.958230  -0.177847  -1.101937   2.076547   3.439194  -0.435067   0.946587  -2.636224   6.818051   0.030202  -0.017571  -4.475409  -0.858246   0.312670   0.313959   0.001178  -0.001272  -1.309871   1.806597   0.572188   8.195743  -0.026600   0.003961  -4.978634   1.280117  -0.372131  -0.157460   0.000384  -0.000491
 -2.375643   0.922343   3.967794  -2.728470  -2.513622   0.908232   3.317459   1.203714  -0.925556   0.971971  -0.034776  -0.624403   0.255711   0.555685   0.292475  -0.480057   0.503094  -0.259966  -1.903108   4.165313   9.275851   0.208379  14.434734   0.004843  -1.226403  -3.681806  -2.445522  -1.972350   0.495813   0.544569  -8.425680   1.594951  -6.351474   0.116353 -14.716965  -0.208395  -1.463514   1.984309   3.891170  -0.579962   1.122140  -3.579879   8.822958   0.035968  -0.028236  -5.711294  -1.180112   0.499222   0.444279   0.001607  -0.002164  -1.732003   2.340874   1.249199  10.692483  -0.038579   0.002188  -6.411863   1.667253  -0.450350  -0.187293   0.000490  -0.000444
 -2.375278   0.921123   3.965353  -3.523276  -3.244005   1.071300   4.157366   1.566180  -1.124257   1.306433   0.089887  -0.740141   0.313202   0.669122   0.342200  -0.573699   1.017953   0.187431  -2.435489   5.313998  11.630237   0.256395  18.191601   0.002466  -1.493801  -3.592578  -2.219645  -2.380628   0.352339   0.218223 -10.172711   1.871877  -7.994732   0.133729 -18.493231  -0.229755  -1.809608   1.796057   4.100541  -0.732328   1.298447  -4.605621  10.710310   0.039995  -0.035982  -6.881278  -1.464677   0.629653   0.537577   0.001832  -0.002502  -2.157325   2.826885   1.992148  13.015379  -0.048781   0.002840  -7.749807   2.031160  -0.513208  -0.218346   0.000611  -0.000415
 -2.374763   0.919667   3.962985  -4.338757  -3.887746   1.243446   4.987985   1.904144  -1.312017   1.655544   0.210958  -0.847785   0.363267   0.774582   0.386507  -0.658727   1.573296   0.698812  -2.979725   6.417349  13.911460   0.296926  21.964911  -0.000575  -1.750467  -3.407985  -1.838916  -2.757060   0.155711  -0.175941 -11.789223   2.139777  -9.592199   0.143229 -22.281450  -0.244639  -2.141312   1.553221   4.147232  -0.888124   1.459913  -5.665975  12.488841   0.042419  -0.041119  -7.967750  -1.734548   0.749064   0.619607   0.001959  -0.002640  -2.588921   3.271399   2.800460  15.170214  -0.056645   0.005804  -8.999143   2.373130  -0.563551  -0.249928   0.000732  -0.000410
 -2.374247   0.917217   3.960594  -4.732239  -4.588628   1.304168   5.362211   2.222520  -1.354372   1.891056   0.392186  -0.889877   0.439603   0.859770   0.500053  -0.720963   1.992343   0.863211  -3.255342   7.753781  16.215956   0.326011  25.755411  -0.011482  -2.057115  -3.185862  -1.196810  -3.055444   0.112108  -0.398526 -13.914218   2.466679 -11.434572   0.136528 -26.065157  -0.281279  -2.558740   1.345809   4.121282  -1.739257   1.704124  -6.606950  14.947014   0.048075  -0.051317  -9.275482  -1.967796   0.872252   0.585533   0.001354  -0.001846  -3.196254   3.930104   3.821639  16.367677  -0.055311   0.008902  -9.578144   2.872657  -0.717915  -0.073440  -0.000701   0.000638
 -2.373728   0.913821   3.958390  -5.083687  -5.137802   1.344816   5.696338   2.472374  -1.360483   2.073637   0.537089  -0.905584   0.498660   0.935808   0.628021  -0.781084   2.401343   0.959860  -3.562312   9.010987  18.349229   0.343064  29.556559  -0.019416  -2.346702  -2.918991  -0.537173  -3.334621   0.046853  -0.611253 -15.887057   2.820790 -13.156699   0.119096 -29.852865  -0.311505  -2.982861   1.144577   4.077210  -2.546895   1.941540  -7.546249  17.318152   0.052267  -0.057143 -10.492805  -2.189205   0.980132   0.547925   0.000835  -0.001224  -3.811152   4.527183   4.901820  17.351227  -0.052366   0.011715 -10.118883   3.343866  -0.855847   0.120594  -0.002009   0.001732
 -2.373204   0.910268   3.956363  -5.482393  -5.651422   1.301008   6.060094   2.718794  -1.294173   2.264779   0.680291  -0.888269   0.547599   1.007467   0.756131  -0.841398   2.813221   1.059781  -3.896213  10.191001  20.346422   0.354148  33.360254  -0.026076  -2.622457  -2.641465   0.050638  -3.591983  -0.035778  -0.855054 -17.713216   3.197521 -14.774584   0.096330 -33.642608  -0.335233  -3.389278   0.938154   4.051764  -3.434523   2.091897  -8.258838  19.625874   0.051339  -0.062823 -11.560403  -2.444741   1.174461   0.541169   0.000637  -0.000927  -4.353500   5.070197   6.061581  18.233159  -0.049013   0.013580 -10.622632   3.786944  -0.979023   0.312281  -0.003026   0.002569
 -2.372545   0.906648   3.954636  -5.928967  -6.096140   1.269011   6.432255   2.938377  -1.233433   2.473487   0.806494  -0.866430   0.594943   1.074324   0.880026  -0.893372   3.214055   1.164419  -4.244210  11.292056  22.230554   0.360594  37.165628  -0.031703  -2.887924  -2.369251   0.616288  -3.827194  -0.133328  -1.100094 -19.401279   3.587413 -16.287482   0.068734 -37.433080  -0.355035  -3.778727   0.735633   4.015667  -4.325765   2.207710  -8.840206  21.871180   0.046989  -0.066096 -12.529084  -2.692851   1.373072   0.530809   0.000478  -0.000664  -4.830891   5.565232   7.170110  19.052137  -0.045413   0.014990 -11.092218   4.201523  -1.089892   0.492505  -0.003691   0.003189
 -2.371693   0.902977   3.953300  -6.398289  -6.477884   1.285567   6.783366   3.129145  -1.195067   2.682985   0.909004  -0.852249   0.641764   1.137156   0.994048  -0.935299   3.597937   1.269343  -4.598654  12.316034  24.008539   0.362637  40.972221  -0.035548  -3.144114  -2.108725   1.177429  -4.046291  -0.250084  -1.327880 -20.965978   3.971524 -17.694314   0.037340 -41.022748  -0.368585  -4.145931   0.452093   3.962687  -5.153576   2.283552  -9.310149  24.108352   0.039984  -0.067312 -13.394316  -2.930690   1.574808   0.508840   0.000346  -0.000372  -5.262701   6.024255   8.183716  19.816770  -0.041698   0.016013 -11.530435   4.588823  -1.190347   0.657860  -0.004048   0.003607
 -2.370581   0.899389   3.952363  -6.877235  -6.835750   1.349361   7.110404   3.305066  -1.165749   2.883875   0.998770  -0.845464   0.684690   1.196277   1.097661  -0.968892   3.963834   1.373051  -4.955113  13.266455  25.683300   0.360955  44.778660  -0.037347  -3.391034  -1.863604   1.726569  -4.249862  -0.373603  -1.542608 -22.415719   4.355641 -19.000099   0.004490 -44.378972  -0.376381  -4.494595   0.135358   3.914794  -5.926882   2.311813  -9.650577  26.325978   0.030459  -0.067127 -14.172425  -3.161707   1.785237   0.490956   0.000279  -0.000169  -5.652346   6.454920   9.099090  20.529803  -0.038006   0.016481 -11.939237   4.950700  -1.281471   0.811015  -0.004186   0.003832
 -2.368790   0.896350   3.951791  -7.082884  -7.202987   1.326264   7.175205   3.336723  -0.922855   2.980298   1.185616  -0.770135   0.792462   1.187142   1.102380  -0.886707   4.264075   1.139837  -5.246399  14.408489  27.145175   0.353426  48.555403  -0.047095  -3.728634  -1.720696   2.484242  -4.165922  -0.385290  -1.680685 -23.837934   4.841392 -20.488168  -0.023709 -47.587276  -0.377148  -4.836594  -0.164848   3.991523  -6.679809   2.267282  -9.873116  27.900887   0.022732  -0.063243 -14.559195  -3.325404   1.645775   0.655809   0.000674  -0.001283  -6.016592   6.941588   9.877944  20.472740  -0.030126   0.012967 -11.508953   5.320033  -1.371364   1.030287  -0.004321   0.004420
 -2.366559   0.893656   3.951321  -7.164569  -7.582081   1.284640   7.201070   3.359266  -0.630963   3.006215   1.372864  -0.673082   0.884353   1.174171   1.126737  -0.844783   4.560560   0.790668  -5.566097  15.487853  28.437154   0.339424  52.343510  -0.054267  -4.047629  -1.551180   3.157894  -4.076807  -0.387728  -1.793026 -25.144620   5.334662 -21.865078  -0.050381 -50.583563  -0.372430  -5.165390  -0.447414   4.059906  -7.408705   2.260498 -10.080337  29.192327   0.017192  -0.057860 -14.968485  -3.467456   1.486951   0.829005   0.001048  -0.002131  -6.395788   7.406149  10.491471  20.311592  -0.023570   0.009856 -11.103971   5.663677  -1.460097   1.282184  -0.004159   0.004870
